<?xml version="1.0" standalone="no"?>
<!DOCTYPE svg PUBLIC "-//W3C//DTD SVG 20010904//EN"
 "http://www.w3.org/TR/2001/REC-SVG-20010904/DTD/svg10.dtd">
<svg version="1.0" xmlns="http://www.w3.org/2000/svg"
 width="1152.000000pt" height="1152.000000pt" viewBox="0 0 1152.000000 1152.000000"
 preserveAspectRatio="xMidYMid meet">
<metadata>
Created by potrace 1.11, written by Peter Selinger 2001-2013
</metadata>
<g transform="translate(0.000000,1152.000000) scale(0.100000,-0.100000)"
fill="#000000" stroke="none">
<path d="M770 8960 c0 -3 -15 -5 -32 -5 -29 1 -63 -4 -143 -20 -11 -2 -20 -4
-20 -5 0 -1 -7 -3 -16 -5 -31 -6 -184 -82 -208 -104 -13 -11 -27 -21 -30 -21
-11 0 -115 -104 -150 -148 -49 -63 -81 -111 -81 -123 0 -6 -9 -24 -21 -41 -12
-16 -18 -32 -15 -35 3 -3 2 -11 -4 -17 -8 -11 -15 -35 -38 -131 -9 -40 -9
-5027 0 -5085 12 -71 14 -79 21 -86 4 -4 7 -14 7 -22 0 -19 52 -136 62 -140 4
-2 8 -8 8 -13 0 -14 71 -107 117 -154 73 -75 205 -170 217 -158 3 4 6 1 6 -6
0 -7 4 -9 10 -6 6 3 10 1 10 -4 0 -6 8 -11 18 -11 9 0 30 -7 46 -15 17 -9 44
-18 60 -21 68 -11 113 -17 144 -18 17 0 32 -3 32 -6 0 -7 230 -4 237 3 3 3 16
2 29 -3 14 -6 26 -6 29 1 4 5 13 6 22 0 9 -4 31 -5 49 -1 19 4 34 5 34 1 0 -3
17 -5 37 -4 21 1 56 3 79 4 22 1 46 -1 52 -5 6 -3 13 -2 17 3 3 7 15 7 30 1
15 -6 27 -6 30 0 3 6 15 6 30 0 15 -6 27 -6 30 0 3 6 15 6 30 0 15 -6 27 -6
30 0 3 6 15 6 30 0 15 -6 27 -6 30 0 3 6 15 6 30 0 15 -6 27 -6 30 0 3 6 15 6
30 0 15 -6 27 -6 30 0 3 6 15 6 30 0 15 -6 27 -6 30 0 3 6 15 6 30 0 15 -6 27
-6 30 0 3 6 15 6 30 0 15 -6 27 -6 30 0 3 6 15 6 30 0 15 -6 27 -6 30 0 3 6
15 6 30 0 15 -6 27 -6 30 0 3 6 15 6 30 0 15 -6 27 -6 30 0 3 6 15 6 30 0 15
-6 27 -6 30 0 3 6 15 6 30 0 15 -6 27 -6 30 0 3 6 15 6 30 0 15 -6 27 -6 30 0
3 6 15 6 30 0 15 -6 27 -6 30 0 3 6 15 6 30 0 15 -6 27 -6 30 0 3 6 15 6 30 0
15 -6 27 -6 30 0 3 6 15 6 30 0 15 -6 27 -6 30 0 3 6 15 6 30 0 15 -6 27 -6
30 0 3 6 15 6 30 0 15 -6 27 -6 30 0 3 6 15 6 30 0 15 -6 27 -6 30 0 3 6 15 6
30 0 15 -6 27 -6 30 0 3 6 15 6 30 0 15 -6 27 -6 30 0 3 6 15 6 30 0 15 -6 27
-6 30 0 3 6 15 6 30 0 15 -6 27 -6 30 0 3 6 15 6 30 0 15 -6 27 -6 30 0 3 6
15 6 30 0 15 -6 27 -6 30 0 3 6 15 6 30 0 15 -6 27 -6 30 0 3 6 15 6 30 0 15
-6 27 -6 30 0 3 6 15 6 30 0 15 -6 27 -6 30 0 3 6 15 6 30 0 15 -6 27 -6 30 0
3 6 15 6 30 0 15 -6 27 -6 30 0 3 6 15 6 30 0 15 -6 27 -6 30 0 3 6 15 6 30 0
15 -6 27 -6 30 0 3 6 15 6 30 0 15 -6 27 -6 30 0 3 6 15 6 30 0 15 -6 27 -6
30 0 3 6 15 6 30 0 15 -6 27 -6 30 0 3 6 15 6 30 0 15 -6 27 -6 30 0 3 6 15 6
30 0 15 -6 27 -6 30 1 4 5 11 7 16 3 13 -8 107 -9 115 -1 3 3 17 2 30 -3 14
-6 26 -6 29 1 4 5 13 6 22 0 9 -4 31 -5 49 -1 19 4 34 5 34 1 0 -7 149 -6 157
2 3 3 16 2 29 -3 14 -6 26 -6 29 1 4 5 13 6 22 0 9 -4 31 -5 49 -1 19 4 34 5
34 1 0 -7 149 -6 157 2 3 3 16 2 29 -3 14 -6 26 -6 29 1 4 5 13 6 22 0 9 -4
31 -5 49 -1 19 4 34 5 34 1 0 -7 149 -6 157 2 3 3 16 2 29 -3 14 -6 26 -6 29
1 4 5 13 6 22 0 9 -4 31 -5 49 -1 19 4 34 5 34 1 0 -6 35 -6 117 0 23 2 45 0
49 -3 3 -4 17 -3 30 2 14 6 26 6 29 0 3 -6 15 -6 30 0 15 6 27 6 30 0 3 -6 15
-6 30 0 15 6 27 6 30 0 3 -6 15 -6 30 0 15 6 27 6 30 0 3 -6 15 -6 30 0 15 6
27 6 30 0 3 -6 15 -6 30 0 15 6 27 6 30 0 3 -6 15 -6 30 0 15 6 27 6 30 0 3
-6 15 -6 30 0 15 6 27 6 30 0 3 -6 15 -6 30 0 15 6 27 6 30 0 3 -6 15 -6 30 0
15 6 27 6 30 0 3 -6 15 -6 30 0 15 6 27 6 30 0 3 -6 15 -6 30 0 15 6 27 6 30
0 3 -6 15 -6 30 0 15 6 27 6 30 0 3 -6 15 -6 30 0 15 6 27 6 30 0 3 -6 15 -6
30 0 15 6 27 6 30 0 3 -6 15 -6 30 0 15 6 27 6 30 0 3 -6 15 -6 30 0 14 5 27
5 30 0 3 -5 18 -5 35 0 17 5 30 5 30 0 0 -5 13 -5 30 0 17 5 30 6 30 2 0 -8
1208 -7 1216 1 4 3 17 2 30 -3 14 -6 26 -6 29 1 4 5 11 7 16 3 13 -8 107 -9
115 -1 3 3 17 2 30 -3 14 -6 26 -6 29 1 4 5 13 6 22 0 9 -4 31 -5 49 -1 19 4
34 5 34 1 0 -7 149 -6 157 2 3 3 16 2 29 -3 14 -6 26 -6 29 1 4 5 13 6 22 0 9
-4 31 -5 49 -1 19 4 34 5 34 1 0 -7 149 -6 157 2 3 3 16 2 29 -3 14 -6 26 -6
29 1 4 5 13 6 22 0 9 -4 31 -5 49 -1 19 4 34 5 34 1 0 -7 149 -6 157 2 3 3 16
2 29 -3 14 -6 26 -6 29 1 4 5 13 6 22 0 9 -4 31 -5 49 -1 19 4 34 5 34 1 0 -3
17 -5 37 -4 21 1 56 3 79 4 22 1 46 -1 52 -5 6 -3 13 -2 17 3 3 7 15 7 30 1
15 -6 27 -6 30 0 3 6 15 6 30 0 15 -6 27 -6 30 0 3 6 15 6 30 0 15 -6 27 -6
30 0 3 6 15 6 30 0 15 -6 27 -6 30 0 3 6 15 6 30 0 15 -6 27 -6 30 0 3 6 15 6
30 0 15 -6 27 -6 30 0 3 6 15 6 30 0 15 -6 27 -6 30 0 3 6 15 6 30 0 15 -6 27
-6 30 0 3 6 15 6 30 0 15 -6 27 -6 30 0 3 6 15 6 30 0 15 -6 27 -6 30 0 3 6
15 6 30 0 15 -6 27 -6 30 0 3 6 15 6 30 0 15 -6 27 -6 30 0 3 6 15 6 30 0 15
-6 27 -6 30 0 3 6 15 6 30 0 15 -6 27 -6 30 0 3 6 15 6 30 0 15 -6 27 -6 30 0
3 5 15 6 28 1 12 -5 32 -5 44 0 13 5 25 4 28 -1 3 -6 15 -6 30 0 15 6 27 6 30
-1 4 -5 11 -6 17 -3 6 4 29 8 52 10 47 3 75 8 131 23 22 6 45 11 50 12 6 1 30
13 54 26 24 12 48 23 52 23 4 0 24 11 43 23 148 101 248 214 312 352 20 43 38
86 39 94 2 9 4 16 5 16 2 0 9 33 15 75 8 55 10 64 17 75 3 6 2 19 -2 30 -4 11
-4 32 0 46 4 15 4 32 0 40 -5 7 -6 17 -3 22 3 5 6 42 6 82 0 40 -3 77 -6 82
-3 5 -2 15 2 22 5 7 5 30 1 52 -4 21 -5 39 -1 39 3 0 5 21 3 47 -1 27 -2 66
-2 88 1 36 0 124 -1 150 0 6 0 26 0 45 1 50 1 71 1 103 0 19 5 27 17 28 98 4
180 23 255 59 59 28 187 119 188 133 0 4 11 19 24 32 51 50 117 170 132 236 2
11 7 29 11 42 4 12 9 499 10 1082 2 1008 0 1099 -24 1165 -4 8 -5 18 -5 23 1
4 -3 7 -9 7 -5 0 -8 4 -5 9 7 11 -36 92 -79 151 -35 47 -117 130 -129 130 -4
0 -15 8 -26 18 -25 23 -114 67 -176 87 -44 13 -92 21 -165 24 -11 1 -16 9 -15
24 1 12 -1 29 -5 38 -4 8 -4 21 0 28 5 7 5 30 1 52 -4 21 -5 39 -1 39 3 0 5
21 3 47 -1 27 -2 66 -2 88 2 104 2 131 0 140 -1 6 -1 13 0 18 2 9 2 75 0 85
-1 4 -1 12 0 17 5 22 2 124 -5 134 -3 6 -3 11 2 11 4 0 8 18 8 40 0 22 -2 40
-5 40 -3 0 -5 21 -6 48 -1 71 -17 169 -33 207 -41 96 -57 130 -63 133 -5 2 -8
9 -8 15 0 14 -89 127 -137 174 -18 18 -33 31 -33 28 0 -2 -11 6 -24 18 -48 44
-102 80 -123 83 -8 2 -22 9 -31 18 -10 8 -19 15 -22 15 -3 0 -18 5 -35 11 -56
22 -140 40 -201 43 -33 2 -65 7 -70 10 -6 3 -16 2 -24 -3 -8 -5 -21 -5 -30 0
-9 5 -22 5 -30 0 -7 -4 -24 -4 -36 0 -14 6 -26 5 -29 0 -3 -6 -15 -6 -30 0
-15 6 -27 6 -30 0 -3 -6 -15 -6 -30 0 -15 6 -27 6 -30 0 -3 -6 -15 -6 -30 0
-15 6 -27 6 -30 0 -3 -6 -15 -6 -30 0 -15 6 -27 6 -30 0 -3 -6 -15 -6 -30 0
-15 6 -27 6 -30 0 -3 -6 -15 -6 -30 0 -15 6 -27 6 -30 0 -3 -6 -15 -6 -30 0
-15 6 -27 6 -30 0 -3 -6 -15 -6 -30 0 -15 6 -27 6 -30 0 -3 -6 -15 -6 -30 0
-15 6 -27 6 -30 0 -3 -6 -15 -6 -30 0 -15 6 -27 6 -30 0 -3 -6 -15 -6 -30 0
-15 6 -27 6 -30 0 -3 -6 -15 -6 -30 0 -15 6 -27 6 -30 0 -3 -6 -15 -6 -30 0
-15 6 -27 6 -30 0 -3 -6 -15 -6 -30 0 -15 6 -27 6 -30 0 -3 -6 -15 -6 -30 0
-15 6 -27 6 -30 0 -3 -6 -15 -6 -30 0 -15 6 -27 6 -30 0 -3 -6 -15 -6 -30 0
-15 6 -27 6 -30 0 -3 -6 -15 -6 -30 0 -15 6 -27 6 -30 0 -3 -6 -15 -6 -30 0
-15 6 -27 6 -30 0 -3 -6 -15 -6 -30 0 -15 6 -27 6 -30 0 -3 -6 -15 -6 -30 0
-15 6 -27 6 -30 0 -3 -6 -15 -6 -30 0 -15 6 -27 6 -30 0 -3 -6 -15 -6 -30 0
-15 6 -27 6 -30 0 -3 -6 -15 -6 -30 0 -15 6 -27 6 -30 0 -3 -6 -15 -6 -30 0
-15 6 -27 6 -30 0 -3 -6 -15 -6 -30 0 -15 6 -27 6 -30 0 -3 -6 -15 -6 -30 0
-15 6 -27 6 -30 0 -3 -6 -15 -6 -30 0 -15 6 -27 6 -30 0 -3 -6 -15 -6 -30 0
-15 6 -27 6 -30 0 -3 -6 -15 -6 -30 0 -15 6 -27 6 -30 0 -3 -6 -15 -6 -30 0
-15 6 -27 6 -30 0 -3 -6 -15 -6 -30 0 -15 6 -27 6 -30 0 -3 -6 -15 -6 -30 0
-15 6 -27 6 -30 0 -3 -6 -15 -6 -30 0 -15 6 -27 6 -30 0 -3 -5 -15 -6 -28 -1
-12 5 -32 5 -44 0 -13 -5 -25 -4 -28 1 -3 6 -15 6 -29 0 -13 -5 -27 -6 -30 -3
-3 3 -28 6 -56 6 -28 0 -53 -3 -56 -6 -3 -3 -17 -2 -30 3 -14 6 -26 6 -29 -1
-4 -5 -13 -6 -22 0 -9 4 -31 5 -49 1 -19 -4 -34 -5 -34 -1 0 7 -149 6 -157 -2
-3 -3 -16 -2 -29 3 -14 6 -26 6 -29 -1 -4 -5 -13 -6 -22 0 -9 4 -31 5 -49 1
-19 -4 -34 -5 -34 -1 0 7 -149 6 -157 -2 -3 -3 -16 -2 -29 3 -14 6 -26 6 -29
-1 -4 -5 -13 -6 -22 0 -9 4 -31 5 -49 1 -19 -4 -34 -5 -34 -1 0 7 -149 6 -157
-2 -3 -3 -16 -2 -29 3 -14 6 -26 6 -29 -1 -4 -5 -13 -6 -22 0 -9 4 -31 5 -49
1 -19 -4 -34 -5 -34 -1 0 7 -149 6 -157 -2 -3 -3 -16 -2 -29 3 -14 6 -26 6
-29 -1 -4 -5 -13 -6 -22 0 -9 4 -31 5 -49 1 -19 -4 -34 -5 -34 -1 0 7 -149 6
-157 -2 -3 -3 -16 -2 -29 3 -14 6 -26 6 -29 -1 -4 -5 -13 -6 -22 0 -9 4 -31 5
-49 1 -19 -4 -34 -5 -34 -1 0 7 -149 6 -157 -2 -3 -3 -16 -2 -29 3 -14 6 -26
6 -29 -1 -4 -5 -13 -6 -22 0 -9 4 -31 5 -49 1 -19 -4 -34 -5 -34 -1 0 7 -149
6 -157 -2 -3 -3 -16 -2 -29 3 -14 6 -26 6 -29 -1 -4 -5 -13 -6 -22 0 -9 4 -31
5 -49 1 -19 -4 -34 -5 -34 -1 0 3 -17 5 -37 4 -21 -1 -56 -3 -79 -4 -22 -1
-46 1 -52 5 -6 3 -13 2 -17 -4 -4 -6 -12 -7 -24 -1 -10 6 -23 6 -31 1 -8 -5
-18 -6 -23 -3 -13 8 -2353 7 -2365 -1 -6 -3 -13 -2 -17 3 -3 7 -15 7 -30 1
-15 -6 -27 -6 -30 0 -3 6 -15 6 -30 0 -15 -6 -27 -6 -30 0 -3 6 -15 6 -30 0
-15 -6 -27 -6 -30 0 -3 6 -15 6 -30 0 -15 -6 -27 -6 -30 0 -3 6 -15 6 -30 0
-15 -6 -27 -6 -30 0 -3 6 -15 6 -30 0 -15 -6 -27 -6 -30 0 -3 6 -15 6 -30 0
-15 -6 -27 -6 -30 0 -3 6 -15 6 -30 0 -15 -6 -27 -6 -30 0 -3 6 -15 6 -30 0
-15 -6 -27 -6 -30 0 -3 6 -15 6 -30 0 -15 -6 -27 -6 -30 0 -3 6 -15 6 -30 0
-15 -6 -27 -6 -30 0 -3 6 -15 6 -30 0 -15 -6 -27 -6 -30 0 -3 6 -15 6 -30 0
-15 -6 -27 -6 -30 0 -3 6 -15 6 -30 0 -15 -6 -27 -6 -30 0 -3 6 -15 6 -30 0
-15 -6 -27 -6 -30 0 -3 6 -15 6 -30 0 -15 -6 -27 -6 -30 0 -3 6 -15 6 -30 0
-15 -6 -27 -6 -30 0 -3 6 -15 6 -30 0 -15 -6 -27 -6 -30 0 -3 6 -15 6 -30 0
-15 -6 -27 -6 -30 0 -3 6 -15 6 -30 0 -15 -6 -27 -6 -30 0 -3 6 -15 6 -30 0
-15 -6 -27 -6 -30 0 -3 6 -15 6 -30 0 -15 -6 -27 -6 -30 0 -3 6 -15 6 -30 0
-15 -6 -27 -6 -30 0 -3 6 -15 6 -30 0 -15 -6 -27 -6 -30 0 -3 6 -15 6 -30 0
-15 -6 -27 -6 -30 0 -3 6 -15 6 -30 0 -15 -6 -27 -6 -30 0 -3 6 -15 6 -30 0
-15 -6 -27 -6 -30 0 -3 6 -15 6 -30 0 -15 -6 -27 -6 -30 0 -3 6 -15 6 -29 0
-13 -5 -27 -6 -30 -3 -7 8 -76 10 -76 3z m157 -644 c7 -3 13 -1 13 4 0 6 9 6
25 0 16 -6 25 -6 25 0 0 6 9 6 24 0 13 -5 27 -6 30 -3 8 8 112 7 125 -2 6 -3
11 -2 11 4 0 7 8 7 25 1 16 -6 25 -6 25 0 0 6 9 6 24 0 13 -5 27 -6 30 -3 8 8
112 7 125 -2 6 -3 11 -2 11 4 0 7 8 7 25 1 16 -6 25 -6 25 0 0 6 9 6 24 0 13
-5 27 -6 30 -3 8 8 112 7 125 -2 6 -3 11 -2 11 4 0 7 8 7 25 1 17 -6 25 -6 25
1 0 6 4 7 10 4 15 -9 80 -12 80 -3 0 4 11 3 25 -2 16 -6 25 -6 25 0 0 6 9 6
23 2 22 -9 75 -7 84 2 3 3 16 1 29 -4 15 -6 26 -6 30 1 4 8 9 8 17 0 7 -7 16
-7 29 0 12 6 18 6 18 0 0 -7 8 -7 23 -2 12 5 31 5 42 1 11 -4 25 -3 32 2 7 5
14 5 18 -2 4 -7 12 -7 26 0 12 7 19 7 19 1 0 -7 8 -7 23 -2 12 5 31 5 42 1 11
-4 25 -3 32 2 7 5 14 5 18 -2 4 -7 12 -7 26 0 12 7 19 7 19 1 0 -7 8 -7 23 -2
12 5 31 5 42 1 11 -4 25 -3 32 2 7 5 14 5 18 -2 4 -7 12 -7 26 0 12 7 19 7 19
1 0 -7 8 -7 23 -2 12 5 31 5 42 1 11 -4 25 -3 32 2 7 5 14 5 18 -2 4 -7 12 -7
26 0 12 7 19 7 19 1 0 -7 8 -7 23 -2 12 5 31 5 42 1 11 -4 25 -3 32 2 7 5 14
5 18 -2 4 -7 12 -7 26 0 12 7 19 7 19 1 0 -7 8 -7 23 -2 12 5 31 5 42 1 11 -4
25 -3 32 2 7 5 14 5 18 -2 4 -7 12 -7 26 0 12 7 19 7 19 1 0 -7 8 -7 23 -2 12
5 31 5 42 1 11 -4 25 -3 32 2 7 5 14 5 18 -2 4 -7 12 -7 26 0 12 7 25 7 36 1
11 -6 24 -6 35 0 12 6 18 6 18 0 0 -7 9 -7 25 -1 17 6 25 6 25 -1 0 -6 5 -7
10 -4 14 9 145 9 159 1 6 -4 11 -3 11 3 0 7 8 7 25 1 16 -6 25 -6 25 0 0 6 9
6 24 0 13 -5 27 -6 30 -3 8 8 112 7 125 -2 6 -3 11 -2 11 4 0 7 8 7 25 1 16
-6 25 -6 25 0 0 6 9 6 24 0 13 -5 27 -6 30 -3 8 8 112 7 125 -2 6 -3 11 -2 11
4 0 7 8 7 25 1 16 -6 25 -6 25 0 0 6 9 6 24 0 13 -5 27 -6 30 -3 8 8 112 7
125 -2 6 -3 11 -2 11 4 0 7 8 7 25 1 17 -6 25 -6 25 1 0 6 4 7 10 4 15 -9 80
-12 80 -3 0 4 11 3 25 -2 16 -6 25 -6 25 0 0 6 9 6 23 2 22 -9 75 -7 84 2 3 3
16 1 29 -4 15 -6 26 -6 30 1 4 8 9 8 17 0 7 -7 16 -7 29 0 12 6 18 6 18 0 0
-7 8 -7 23 -2 12 5 31 5 42 1 11 -4 25 -3 32 2 7 5 14 5 18 -2 4 -7 12 -7 26
0 12 7 19 7 19 1 0 -7 8 -7 23 -2 12 5 31 5 42 1 11 -4 25 -3 32 2 7 5 14 5
18 -2 4 -7 12 -7 26 0 12 7 19 7 19 1 0 -7 8 -7 23 -2 12 5 31 5 42 1 11 -4
25 -3 32 2 7 5 14 5 18 -2 3 -5 14 -7 23 -2 15 6 47 8 62 2 16 -5 70 -4 70 2
0 4 11 3 25 -2 17 -6 25 -6 25 1 0 7 6 7 17 0 11 -6 24 -6 35 0 10 6 19 5 23
-1 4 -7 12 -7 24 0 10 5 21 6 25 3 8 -9 66 -10 66 -1 0 4 11 3 25 -2 17 -6 25
-6 25 1 0 7 6 7 17 0 11 -6 24 -6 35 0 10 6 19 5 23 -1 4 -7 12 -7 25 0 12 6
21 7 25 0 4 -6 15 -6 30 0 16 6 25 6 25 0 0 -6 9 -6 25 0 16 6 25 6 25 0 0 -6
9 -6 23 -1 12 4 33 5 47 1 14 -4 33 -3 42 2 10 5 19 4 23 -2 4 -7 12 -7 25 0
12 6 21 7 25 0 4 -6 15 -6 30 0 16 6 25 6 25 0 0 -6 9 -6 23 -1 12 4 33 5 47
1 14 -4 33 -3 42 2 10 5 19 4 23 -2 4 -7 12 -7 25 0 12 6 21 7 25 0 4 -6 15
-6 30 0 16 6 25 6 25 0 0 -5 9 -6 22 -1 13 4 35 5 50 0 16 -4 30 -3 34 2 3 5
12 6 21 0 9 -4 31 -5 49 -1 18 4 35 5 38 2 9 -8 66 -8 66 0 0 4 11 3 25 -2 17
-6 25 -6 25 1 0 7 6 7 17 0 11 -6 24 -6 35 0 10 6 19 5 23 -1 4 -7 12 -7 24 0
10 5 21 6 25 3 8 -9 66 -10 66 -1 0 4 11 3 25 -2 17 -6 25 -6 25 1 0 7 6 7 17
0 11 -6 24 -6 35 0 10 6 19 5 23 -1 4 -7 12 -7 25 0 12 6 21 7 25 0 4 -6 15
-6 30 0 16 6 25 6 25 0 0 -6 9 -6 25 0 16 6 25 6 25 0 0 -6 9 -6 23 -1 12 4
33 5 47 1 14 -4 33 -3 42 2 10 5 19 4 23 -2 4 -7 12 -7 25 0 12 6 21 7 25 0 4
-6 15 -6 30 0 16 6 25 6 25 0 0 -6 9 -6 23 -1 12 4 33 5 47 1 14 -4 33 -3 42
2 10 5 19 4 23 -2 4 -7 12 -7 25 0 12 6 21 7 25 0 4 -6 15 -6 30 0 16 6 25 6
25 0 0 -5 9 -6 22 -1 13 4 35 5 50 0 16 -4 30 -3 33 2 4 5 13 5 24 0 10 -6 23
-6 31 -1 8 5 21 5 30 0 9 -5 22 -5 30 0 8 5 21 5 31 -1 11 -6 20 -5 24 1 4 6
13 7 23 2 9 -5 28 -6 42 -2 14 4 35 3 48 -1 13 -5 22 -5 22 1 0 6 9 6 25 0 13
-5 26 -6 29 -2 5 8 96 6 104 -3 2 -2 13 0 23 5 12 7 20 7 24 0 4 -7 12 -7 25
0 12 6 21 7 25 0 4 -6 15 -6 30 0 16 6 25 6 25 0 0 -6 9 -6 23 -1 12 4 33 5
47 1 14 -4 33 -3 42 2 10 5 19 4 23 -2 4 -6 13 -7 24 -1 10 6 23 6 31 1 8 -5
21 -5 31 1 11 6 20 5 24 -1 4 -7 12 -7 24 0 10 5 21 6 25 3 8 -9 66 -10 66 -1
0 4 11 3 25 -2 17 -6 25 -6 25 1 0 7 6 7 17 0 11 -6 24 -6 35 0 10 6 19 5 23
-1 4 -7 12 -7 24 0 10 5 21 6 25 3 9 -9 67 -9 73 0 2 4 13 3 23 -3 13 -7 21
-7 25 0 4 6 12 7 18 3 13 -8 86 -8 94 1 3 2 16 1 29 -4 15 -6 26 -6 30 1 4 8
9 8 17 0 7 -7 16 -7 29 0 12 6 18 6 18 0 0 -7 8 -7 23 -2 12 5 31 5 42 1 11
-4 25 -3 32 2 7 5 14 5 18 -2 4 -7 12 -7 26 0 12 7 19 7 19 1 0 -7 8 -7 23 -2
12 5 31 5 42 1 11 -4 25 -3 32 2 7 5 14 5 18 -2 4 -7 12 -7 26 0 12 7 19 7 19
1 0 -7 8 -7 23 -2 12 5 31 5 42 1 11 -4 25 -3 32 2 7 5 14 5 18 -2 4 -7 12 -7
26 0 12 7 25 7 36 1 11 -6 24 -6 35 0 12 6 18 6 18 0 0 -7 9 -7 25 -1 17 6 25
6 25 -1 0 -6 5 -7 10 -4 14 9 145 9 159 1 6 -4 11 -3 11 3 0 7 8 7 25 1 16 -6
25 -6 25 0 0 6 9 6 25 0 16 -6 26 -6 31 1 4 7 10 7 18 0 7 -6 17 -6 26 -1 8 5
19 6 24 2 6 -3 26 -7 45 -9 67 -7 120 -77 117 -156 0 -20 3 -37 7 -37 4 0 4
-8 -1 -17 -5 -10 -6 -27 -2 -38 4 -11 4 -30 -1 -42 -5 -14 -4 -25 2 -29 8 -4
8 -9 0 -17 -7 -7 -7 -16 0 -29 5 -10 6 -18 2 -18 -4 0 -8 -11 -8 -25 0 -14 4
-25 8 -25 5 0 5 -5 2 -11 -11 -16 -12 -69 -3 -69 5 0 5 -8 0 -17 -5 -10 -6
-27 -2 -38 4 -11 4 -30 -1 -42 -5 -14 -4 -25 2 -29 8 -4 8 -9 0 -17 -7 -7 -7
-16 0 -29 5 -10 6 -18 2 -18 -4 0 -8 -11 -8 -25 0 -14 4 -25 8 -25 5 0 5 -5 2
-11 -11 -16 -12 -69 -3 -69 5 0 5 -8 0 -17 -5 -10 -6 -27 -2 -38 4 -11 4 -30
-1 -42 -5 -14 -4 -25 2 -29 8 -4 8 -9 0 -17 -7 -7 -7 -16 0 -29 5 -10 6 -18 2
-18 -4 0 -8 -11 -8 -25 0 -14 4 -25 8 -25 5 0 5 -5 2 -11 -11 -16 -12 -69 -3
-69 5 0 5 -8 0 -17 -5 -10 -6 -27 -2 -38 4 -11 4 -30 -1 -42 -5 -14 -4 -25 2
-29 8 -4 8 -9 0 -17 -7 -7 -7 -16 0 -29 5 -10 6 -18 2 -18 -4 0 -8 -11 -8 -25
0 -14 4 -25 8 -25 5 0 5 -5 2 -11 -11 -16 -12 -69 -3 -69 5 0 5 -8 -1 -17 -5
-10 -5 -26 0 -41 5 -13 5 -21 0 -18 -4 3 -6 -5 -4 -18 4 -21 13 -26 48 -26 8
0 22 0 30 0 8 0 22 0 30 0 8 0 22 0 30 0 8 0 22 0 30 0 8 0 22 0 30 0 8 0 22
0 30 0 8 0 21 0 28 0 6 0 28 -1 47 -2 20 -1 42 1 51 4 9 3 22 2 29 -2 7 -5 24
-4 36 0 13 5 26 5 29 1 3 -5 21 -5 40 -1 19 4 37 4 40 -1 3 -4 17 -4 30 1 15
6 27 6 30 0 3 -6 15 -6 29 0 22 8 24 6 24 -25 0 -19 3 -38 6 -44 4 -5 2 -12
-3 -15 -5 -3 -5 -21 -1 -41 4 -19 4 -37 0 -40 -5 -3 -5 -18 0 -34 4 -15 4 -34
0 -41 -4 -6 -4 -27 0 -46 4 -19 4 -36 0 -39 -4 -3 -4 -20 0 -39 4 -19 4 -40 0
-46 -4 -7 -4 -26 0 -41 5 -16 5 -31 0 -34 -5 -3 -5 -18 0 -34 4 -15 4 -34 0
-41 -4 -6 -4 -27 0 -45 4 -18 4 -39 0 -45 -4 -7 -4 -26 0 -41 5 -16 5 -31 0
-34 -5 -3 -5 -18 0 -34 4 -15 4 -34 0 -41 -4 -6 -4 -27 0 -46 4 -19 4 -36 0
-39 -4 -3 -4 -21 0 -40 4 -19 4 -37 0 -40 -5 -3 -5 -18 -1 -33 5 -15 5 -36 1
-47 -4 -11 -4 -32 1 -47 4 -15 4 -30 -1 -33 -4 -3 -4 -21 0 -40 4 -19 4 -37 0
-40 -5 -3 -5 -18 -1 -33 5 -15 5 -36 1 -47 -4 -11 -4 -32 1 -47 4 -15 4 -30
-1 -33 -4 -3 -4 -21 0 -40 4 -19 4 -37 0 -40 -5 -3 -5 -18 0 -34 4 -15 4 -34
0 -41 -4 -6 -4 -27 0 -46 4 -19 4 -36 0 -39 -4 -3 -4 -21 0 -40 4 -19 4 -35 0
-35 -4 0 -4 -18 0 -40 4 -22 4 -40 0 -40 -4 0 -4 -15 0 -34 4 -19 4 -39 0 -46
-4 -7 -4 -28 0 -47 6 -24 5 -33 -3 -30 -7 2 -22 0 -34 -4 -13 -5 -25 -4 -28 1
-3 6 -15 6 -30 0 -13 -5 -27 -5 -30 -1 -3 5 -21 5 -40 1 -19 -4 -35 -4 -35 0
0 5 -13 5 -30 0 -17 -5 -32 -5 -35 0 -3 5 -16 6 -28 2 -12 -4 -35 -6 -52 -5
-16 2 -36 3 -42 3 -7 0 -20 0 -28 0 -8 0 -22 0 -30 0 -8 0 -22 0 -30 0 -8 0
-22 0 -30 0 -8 0 -22 0 -30 0 -8 0 -22 0 -30 0 -8 0 -21 -1 -27 -1 -7 -1 -18
0 -24 2 -7 2 -13 0 -14 -6 -1 -5 -6 -18 -11 -27 -6 -10 -5 -19 1 -23 6 -4 7
-13 1 -24 -6 -10 -6 -23 -1 -31 5 -8 6 -18 3 -24 -9 -14 -9 -66 0 -66 4 0 4
-8 -1 -17 -5 -10 -6 -27 -2 -38 4 -11 4 -30 -1 -42 -5 -14 -4 -25 2 -29 8 -4
8 -9 0 -17 -7 -7 -7 -16 0 -29 5 -10 6 -18 2 -18 -4 0 -8 -11 -8 -25 0 -14 4
-25 8 -25 5 0 5 -5 2 -11 -11 -16 -12 -69 -3 -69 5 0 5 -8 0 -18 -5 -9 -6 -26
-2 -37 4 -11 4 -30 -1 -42 -5 -14 -4 -25 2 -29 8 -4 8 -9 0 -17 -7 -7 -7 -16
0 -29 5 -10 6 -18 2 -18 -4 0 -8 -11 -8 -25 0 -14 4 -25 8 -25 5 0 5 -5 2 -11
-11 -16 -12 -69 -3 -69 5 0 5 -8 0 -17 -5 -10 -6 -27 -2 -38 4 -11 4 -30 -1
-42 -5 -14 -4 -25 2 -29 8 -4 8 -9 0 -17 -7 -7 -7 -16 0 -29 5 -10 6 -18 2
-18 -4 0 -8 -11 -8 -25 0 -14 4 -25 8 -25 5 0 5 -5 2 -11 -11 -16 -12 -69 -3
-69 5 0 5 -8 -1 -17 -5 -10 -5 -26 -1 -39 5 -12 7 -24 4 -27 -9 -8 -10 -77 -2
-77 5 0 5 -8 -1 -17 -5 -10 -5 -26 -1 -39 5 -12 7 -24 4 -27 -2 -2 -6 -25 -9
-51 -4 -57 -38 -111 -80 -128 -16 -7 -33 -12 -37 -10 -5 1 -8 -3 -8 -8 0 -7
-6 -8 -17 -1 -11 6 -24 6 -35 0 -10 -6 -19 -5 -23 1 -4 6 -11 8 -16 4 -14 -8
-134 -8 -148 0 -6 4 -11 3 -11 -3 0 -7 -8 -7 -25 -1 -17 6 -25 6 -25 -1 0 -6
-4 -7 -10 -4 -15 9 -80 12 -80 3 0 -4 -11 -3 -25 2 -16 6 -25 6 -25 0 0 -6 -9
-6 -22 -2 -23 9 -76 7 -85 -2 -3 -3 -16 -1 -29 4 -15 6 -26 6 -30 -1 -4 -8 -9
-8 -17 0 -7 7 -16 7 -29 0 -12 -6 -18 -6 -18 0 0 7 -8 7 -22 2 -13 -5 -32 -5
-43 -1 -11 4 -25 3 -32 -2 -7 -5 -14 -5 -18 2 -4 7 -12 7 -26 0 -12 -7 -19 -7
-19 -1 0 7 -8 7 -22 2 -13 -5 -32 -5 -43 -1 -11 4 -25 3 -32 -2 -7 -5 -14 -5
-18 2 -4 7 -12 7 -26 0 -12 -7 -19 -7 -19 -1 0 7 -8 7 -22 2 -13 -5 -32 -5
-43 -1 -11 4 -25 3 -32 -2 -7 -5 -14 -5 -18 2 -3 5 -14 7 -23 2 -15 -6 -47 -8
-62 -2 -16 5 -70 4 -70 -2 0 -4 -11 -3 -25 2 -17 6 -25 6 -25 -1 0 -7 -6 -7
-17 0 -11 6 -24 6 -35 0 -10 -6 -19 -5 -23 1 -4 7 -12 7 -24 0 -10 -5 -21 -6
-25 -3 -8 9 -66 10 -66 1 0 -4 -11 -3 -25 2 -17 6 -25 6 -25 -1 0 -7 -6 -7
-17 0 -11 6 -24 6 -35 0 -10 -6 -19 -5 -23 1 -4 7 -12 7 -25 0 -12 -6 -21 -7
-25 0 -4 6 -15 6 -30 0 -16 -6 -25 -6 -25 0 0 6 -9 6 -25 0 -16 -6 -25 -6 -25
0 0 6 -9 6 -22 1 -13 -4 -34 -5 -48 -1 -14 4 -33 3 -42 -2 -10 -5 -19 -4 -23
2 -4 7 -12 7 -25 0 -12 -6 -21 -7 -25 0 -4 6 -15 6 -30 0 -16 -6 -25 -6 -25 0
0 6 -9 6 -23 1 -12 -4 -33 -5 -47 -1 -14 4 -33 3 -42 -2 -10 -5 -19 -4 -23 2
-4 7 -12 7 -25 0 -12 -6 -21 -7 -25 0 -4 6 -15 6 -30 0 -16 -6 -25 -6 -25 0 0
5 -9 6 -22 1 -13 -4 -35 -5 -50 0 -16 4 -30 3 -33 -2 -4 -5 -13 -5 -24 0 -10
6 -23 6 -31 1 -8 -5 -21 -5 -30 0 -9 5 -22 5 -30 0 -8 -5 -21 -5 -31 1 -11 6
-20 5 -24 -1 -4 -6 -13 -7 -23 -2 -9 5 -28 6 -42 2 -14 -4 -35 -3 -47 1 -14 5
-23 5 -23 -1 0 -6 -9 -6 -25 0 -13 5 -26 6 -29 2 -5 -8 -96 -6 -104 3 -2 2
-13 0 -23 -5 -12 -7 -20 -7 -24 0 -4 7 -12 7 -25 0 -12 -6 -21 -7 -25 0 -4 6
-15 6 -30 0 -16 -6 -25 -6 -25 0 0 6 -9 6 -22 1 -13 -4 -34 -5 -48 -1 -14 4
-33 3 -42 -2 -10 -5 -19 -4 -23 2 -4 6 -13 7 -24 1 -10 -6 -23 -6 -31 -1 -8 5
-21 5 -31 -1 -11 -6 -20 -5 -24 1 -4 7 -12 7 -24 0 -10 -5 -21 -6 -25 -3 -8 9
-66 10 -66 1 0 -4 -11 -3 -25 2 -17 6 -25 6 -25 -1 0 -7 -6 -7 -17 0 -11 6
-24 6 -35 0 -10 -6 -19 -5 -23 1 -4 7 -12 7 -25 0 -10 -6 -21 -7 -23 -3 -6 9
-59 9 -73 0 -6 -3 -16 -2 -24 3 -9 5 -19 5 -26 -1 -8 -6 -14 -7 -18 0 -4 6
-18 6 -35 1 -15 -4 -34 -4 -42 0 -7 5 -20 5 -28 0 -9 -5 -23 -4 -33 1 -10 6
-19 5 -23 -1 -4 -6 -13 -7 -23 -2 -9 5 -28 6 -42 2 -14 -4 -35 -3 -47 1 -14 5
-23 5 -23 -1 0 -6 -9 -6 -25 0 -13 5 -26 6 -29 2 -5 -8 -96 -6 -104 3 -2 2
-13 0 -23 -5 -12 -7 -20 -7 -24 0 -4 7 -12 7 -25 0 -12 -6 -21 -7 -25 0 -4 6
-15 6 -30 0 -16 -6 -25 -6 -25 0 0 6 -9 6 -22 1 -13 -4 -34 -5 -48 -1 -14 4
-33 3 -42 -2 -10 -5 -19 -4 -23 2 -4 6 -13 7 -24 1 -10 -6 -23 -6 -31 -1 -8 5
-21 5 -31 -1 -11 -6 -20 -5 -24 1 -4 7 -12 7 -24 0 -10 -5 -21 -6 -25 -3 -8 9
-66 10 -66 1 0 -4 -11 -3 -25 2 -17 6 -25 6 -25 -1 0 -7 -6 -7 -17 0 -11 6
-24 6 -35 0 -10 -6 -19 -5 -23 1 -4 7 -12 7 -25 0 -10 -6 -21 -7 -23 -3 -6 9
-59 9 -73 0 -6 -3 -16 -2 -24 3 -9 5 -19 5 -26 -1 -7 -6 -15 -6 -18 -1 -3 5
-26 6 -51 2 -24 -4 -47 -5 -50 -2 -8 8 -65 8 -65 0 0 -4 -11 -3 -25 2 -17 6
-25 6 -25 -1 0 -7 -6 -7 -17 0 -11 6 -24 6 -35 0 -10 -6 -19 -5 -23 1 -4 7
-12 7 -24 0 -10 -5 -21 -6 -25 -3 -8 9 -66 10 -66 1 0 -4 -11 -3 -25 2 -17 6
-25 6 -25 -1 0 -7 -6 -7 -17 0 -11 6 -24 6 -35 0 -10 -6 -19 -5 -23 1 -4 7
-12 7 -25 0 -12 -6 -21 -7 -25 0 -4 6 -15 6 -30 0 -16 -6 -25 -6 -25 0 0 6 -9
6 -25 0 -16 -6 -25 -6 -25 0 0 6 -9 6 -22 1 -13 -4 -34 -5 -48 -1 -14 4 -33 3
-42 -2 -10 -5 -19 -4 -23 2 -4 7 -12 7 -25 0 -12 -6 -21 -7 -25 0 -4 6 -15 6
-30 0 -16 -6 -25 -6 -25 0 0 6 -9 6 -22 1 -13 -4 -34 -5 -48 -1 -14 4 -33 3
-42 -2 -10 -5 -19 -4 -23 2 -4 7 -12 7 -25 0 -12 -6 -21 -7 -25 0 -4 6 -15 6
-30 0 -16 -6 -25 -6 -25 0 0 5 -9 6 -22 1 -13 -4 -35 -5 -50 0 -16 4 -30 3
-33 -2 -4 -5 -14 -5 -23 -1 -17 9 -70 7 -79 -2 -3 -3 -16 -1 -29 4 -15 6 -26
6 -30 -1 -4 -8 -9 -8 -17 0 -7 7 -16 7 -29 0 -12 -6 -18 -6 -18 0 0 7 -8 7
-22 2 -13 -5 -32 -5 -43 -1 -11 4 -25 3 -32 -2 -7 -5 -14 -5 -18 2 -4 7 -12 7
-26 0 -12 -7 -19 -7 -19 -1 0 7 -8 7 -22 2 -13 -5 -32 -5 -43 -1 -11 4 -25 3
-32 -2 -7 -5 -14 -5 -18 2 -4 7 -12 7 -26 0 -12 -7 -19 -7 -19 -1 0 7 -8 7
-22 2 -13 -5 -32 -5 -43 -1 -11 4 -25 3 -32 -2 -7 -5 -14 -5 -18 2 -4 7 -12 7
-26 0 -12 -7 -25 -7 -36 -1 -11 6 -24 6 -35 0 -12 -6 -18 -6 -18 0 0 7 -9 7
-25 1 -17 -6 -25 -6 -25 1 0 6 -5 7 -10 4 -14 -9 -145 -9 -159 -1 -6 4 -11 3
-11 -3 0 -7 -8 -7 -25 -1 -16 6 -25 6 -25 0 0 -6 -9 -6 -24 0 -13 5 -27 6 -30
3 -8 -8 -112 -7 -125 2 -6 3 -11 2 -11 -4 0 -7 -8 -7 -25 -1 -16 6 -25 6 -25
0 0 -6 -9 -6 -24 0 -13 5 -27 6 -30 3 -8 -8 -112 -7 -125 2 -6 3 -11 2 -11 -4
0 -7 -8 -7 -25 -1 -16 6 -25 6 -25 0 0 -6 -9 -6 -24 0 -13 5 -27 6 -30 3 -8
-8 -112 -7 -125 2 -6 3 -11 2 -11 -4 0 -7 -8 -7 -25 -1 -17 6 -25 6 -25 -1 0
-6 -4 -7 -10 -4 -15 9 -80 12 -80 3 0 -4 -11 -3 -25 2 -16 6 -25 6 -25 0 0 -6
-9 -6 -22 -2 -23 9 -76 7 -85 -2 -3 -3 -16 -1 -29 4 -15 6 -26 6 -30 -1 -4 -8
-9 -8 -17 0 -7 7 -16 7 -29 0 -12 -6 -18 -6 -18 0 0 7 -8 7 -22 2 -13 -5 -32
-5 -43 -1 -11 4 -25 3 -32 -2 -7 -5 -14 -5 -18 2 -4 7 -12 7 -26 0 -12 -7 -19
-7 -19 -1 0 7 -8 7 -22 2 -13 -5 -32 -5 -43 -1 -11 4 -25 3 -32 -2 -7 -5 -14
-5 -18 2 -4 7 -12 7 -26 0 -12 -7 -19 -7 -19 -1 0 7 -8 7 -22 2 -13 -5 -32 -5
-43 -1 -11 4 -25 3 -32 -2 -7 -5 -14 -5 -18 2 -3 5 -14 7 -23 2 -15 -6 -47 -8
-62 -2 -16 5 -70 4 -70 -2 0 -4 -11 -3 -25 2 -17 6 -25 6 -25 -1 0 -7 -6 -7
-17 0 -11 6 -24 6 -35 0 -10 -6 -19 -5 -23 1 -4 7 -12 7 -25 0 -11 -6 -21 -6
-24 -1 -4 5 -18 6 -34 2 -15 -4 -39 -4 -54 0 -17 4 -28 4 -28 -2 0 -6 -6 -6
-18 0 -10 6 -24 6 -32 1 -8 -5 -19 -6 -24 -2 -6 3 -26 7 -45 9 -39 4 -85 37
-100 73 -12 26 -24 77 -23 95 3 45 3 49 2 123 0 9 0 31 1 47 0 30 0 44 -2 68
0 6 0 23 0 37 1 14 1 32 0 40 0 8 0 27 0 42 1 16 1 40 2 55 0 16 2 37 3 48 1
11 -1 34 -5 51 -3 18 -3 38 1 44 4 7 4 26 0 41 -5 16 -5 31 0 34 5 3 5 18 0
34 -4 15 -4 34 0 41 4 6 4 27 0 45 -4 18 -4 39 0 45 4 7 4 26 0 41 -5 16 -5
31 0 34 5 3 5 18 0 34 -4 15 -4 34 0 41 4 6 4 27 0 46 -4 19 -4 36 0 39 4 3 4
21 0 40 -4 19 -4 37 0 40 5 3 5 18 1 33 -5 15 -5 36 -1 47 4 11 4 32 -1 47 -4
15 -4 30 1 33 4 3 4 21 0 40 -4 19 -4 37 0 40 5 3 5 18 1 33 -5 15 -5 36 -1
47 4 11 4 32 -1 47 -4 15 -4 30 1 33 4 3 4 21 0 40 -4 19 -4 37 0 40 5 3 5 18
0 34 -4 15 -4 34 0 41 4 6 4 26 0 44 -4 17 -5 40 -4 51 4 21 5 49 3 75 0 8 0
26 0 40 1 14 1 32 0 40 0 8 0 26 0 40 1 14 1 32 0 40 0 8 0 26 0 40 1 14 1 32
0 40 0 8 0 26 0 40 1 14 1 32 0 40 0 8 0 26 0 40 1 14 1 32 0 40 0 8 0 27 0
43 1 15 1 39 2 55 0 15 1 36 3 47 1 11 -1 37 -5 58 -3 20 -4 37 0 37 7 0 5
104 -2 124 -3 7 -2 18 3 25 4 7 4 28 0 47 -4 19 -4 36 0 39 4 3 4 20 0 39 -4
19 -4 40 0 47 5 7 5 22 0 34 -5 12 -5 27 0 34 4 7 4 28 0 47 -4 19 -4 36 0 39
4 3 4 20 0 39 -4 19 -4 40 0 47 5 7 5 22 0 34 -5 12 -5 27 0 34 4 7 4 28 0 47
-4 19 -4 36 0 39 4 3 4 20 0 39 -4 19 -4 40 0 47 5 7 5 22 0 34 -5 12 -5 27 0
34 4 7 4 28 0 47 -4 19 -4 36 0 39 4 3 4 20 0 39 -4 19 -4 40 0 47 5 7 5 22 0
34 -5 12 -5 27 0 34 4 7 4 27 0 45 -4 17 -5 40 -4 51 4 21 5 49 3 75 0 8 0 26
0 40 1 14 1 32 0 40 0 8 0 26 0 40 1 14 1 32 0 40 0 8 0 26 0 40 1 14 1 32 0
40 0 8 0 26 0 40 1 14 1 32 0 40 0 8 0 26 0 40 1 14 1 32 0 40 0 8 0 27 0 43
1 15 1 39 2 55 0 15 2 36 3 47 1 11 -1 34 -5 51 -3 18 -3 38 1 44 4 7 4 26 0
41 -5 16 -5 31 0 34 5 3 5 18 0 34 -4 15 -4 34 0 41 4 6 4 26 1 44 -4 17 -4
45 0 63 3 18 4 35 1 38 -3 3 -5 33 -4 66 2 87 31 142 88 169 24 12 50 20 57
17 6 -2 20 -1 30 2 19 7 92 5 114 -3z"/>
<path d="M1283 7670 c3 -11 2 -20 -1 -20 -8 0 -7 -78 1 -86 3 -3 2 -17 -3 -30
-6 -14 -6 -26 0 -29 6 -3 6 -15 0 -30 -6 -15 -6 -27 0 -30 7 -4 6 -13 0 -25
-6 -11 -6 -21 -1 -25 6 -3 6 -17 1 -35 -5 -17 -5 -32 0 -35 5 -3 5 -16 0 -30
-6 -15 -6 -27 0 -30 6 -3 6 -15 0 -30 -6 -15 -6 -27 0 -30 7 -4 6 -13 0 -25
-6 -11 -6 -21 -1 -25 6 -3 6 -17 1 -35 -5 -17 -5 -32 0 -35 5 -3 5 -16 0 -30
-6 -15 -6 -27 0 -30 6 -3 6 -15 0 -30 -6 -15 -6 -27 0 -30 7 -4 6 -13 0 -25
-6 -11 -6 -21 -1 -25 6 -3 6 -17 1 -35 -5 -17 -5 -32 0 -35 5 -3 5 -16 0 -30
-6 -15 -6 -27 0 -30 6 -3 6 -15 0 -30 -6 -15 -6 -27 0 -30 7 -4 6 -13 0 -25
-6 -11 -6 -21 -1 -25 6 -3 6 -17 1 -35 -5 -17 -5 -32 0 -35 5 -3 5 -16 0 -30
-6 -15 -6 -27 0 -30 6 -3 6 -15 0 -30 -6 -15 -6 -27 0 -30 7 -4 6 -13 0 -25
-6 -11 -6 -21 -1 -25 6 -3 6 -17 1 -35 -5 -17 -5 -32 0 -35 5 -3 5 -16 0 -30
-6 -15 -6 -27 0 -30 6 -3 6 -15 0 -30 -6 -15 -6 -27 0 -30 7 -4 6 -13 0 -25
-6 -11 -6 -21 -1 -25 6 -3 6 -17 1 -35 -5 -17 -5 -32 0 -35 5 -3 5 -16 0 -30
-6 -15 -6 -27 0 -30 6 -3 6 -15 0 -30 -6 -15 -6 -27 0 -30 7 -4 6 -13 0 -25
-6 -11 -6 -21 -1 -25 6 -3 6 -17 1 -35 -5 -17 -5 -32 0 -35 5 -3 5 -16 0 -30
-6 -15 -6 -27 0 -30 6 -3 6 -15 0 -30 -6 -15 -6 -27 0 -30 7 -4 6 -13 0 -25
-6 -11 -6 -21 -1 -25 6 -3 6 -17 1 -35 -5 -17 -5 -32 0 -35 5 -3 5 -16 0 -30
-6 -15 -6 -27 0 -30 6 -3 6 -15 0 -30 -6 -15 -6 -27 0 -30 7 -4 6 -13 0 -25
-6 -11 -6 -21 -1 -25 6 -3 6 -17 1 -35 -5 -17 -5 -32 0 -35 5 -3 5 -16 0 -30
-6 -15 -6 -27 0 -30 6 -3 6 -15 0 -30 -6 -15 -6 -27 0 -30 7 -4 6 -13 0 -25
-6 -12 -7 -21 0 -25 5 -3 6 -15 0 -29 -4 -12 -5 -28 -1 -34 8 -13 6 -76 -3
-91 -4 -5 -2 -12 3 -16 7 -3 7 -15 1 -30 -6 -15 -6 -27 1 -30 5 -4 7 -11 3
-16 -9 -15 -11 -79 -2 -79 3 0 3 -13 -2 -30 -5 -18 -5 -30 0 -30 6 0 6 -10 0
-25 -6 -15 -6 -26 0 -30 7 -4 6 -13 0 -25 -6 -12 -7 -21 0 -25 6 -3 6 -15 0
-30 -6 -15 -6 -27 1 -30 5 -4 7 -11 3 -16 -9 -15 -11 -79 -2 -79 3 0 3 -13 -2
-30 -5 -18 -5 -30 0 -30 6 0 6 -10 0 -25 -6 -15 -6 -26 0 -30 7 -4 6 -13 0
-25 -6 -12 -7 -21 0 -25 6 -3 6 -15 0 -30 -6 -15 -6 -27 1 -30 5 -4 7 -11 3
-16 -9 -15 -11 -79 -2 -79 3 0 3 -13 -2 -30 -5 -19 -5 -30 1 -30 6 0 7 -4 4
-10 -9 -14 -12 -90 -3 -90 3 0 3 -13 -2 -30 -5 -18 -5 -30 0 -30 6 0 6 -9 1
-22 -5 -13 -5 -33 0 -45 5 -13 5 -23 -1 -23 -5 0 -5 -13 0 -30 5 -16 5 -30 0
-30 -12 0 0 -43 17 -57 9 -7 24 -8 44 -3 16 5 31 5 34 0 3 -5 16 -5 31 0 14 6
23 7 21 2 -3 -4 8 -7 23 -7 15 0 26 3 23 7 -2 5 6 4 19 -1 13 -5 33 -5 46 0
13 5 22 5 22 -1 0 -6 9 -6 23 -1 13 5 30 5 37 1 8 -5 22 -4 31 1 11 6 20 5 24
-1 4 -7 12 -7 24 0 10 5 21 6 25 3 8 -9 66 -10 66 -1 0 4 11 3 25 -2 16 -6 25
-6 25 1 0 6 6 6 18 0 11 -6 24 -6 34 0 11 6 19 6 23 -1 4 -7 12 -7 24 0 10 5
21 6 25 3 8 -9 66 -10 66 -1 0 4 11 3 25 -2 16 -6 25 -6 25 1 0 6 6 6 18 0 11
-6 24 -6 34 0 11 6 19 6 23 -1 4 -7 12 -7 24 0 10 5 21 6 25 3 8 -9 66 -10 66
-1 0 4 11 3 25 -2 16 -6 25 -6 25 1 0 6 6 6 18 0 11 -6 24 -6 34 0 11 6 19 6
23 -1 4 -7 12 -7 25 0 12 6 21 7 25 0 4 -6 15 -6 30 0 16 6 25 6 25 0 0 -6 9
-6 25 0 16 6 25 6 25 0 0 -6 10 -6 26 0 14 6 23 7 20 2 -5 -9 58 -7 73 2 5 4
12 2 16 -4 4 -7 12 -7 25 0 12 6 21 7 25 0 4 -6 15 -6 30 0 16 6 25 6 25 0 0
-6 10 -6 26 0 14 6 23 7 20 2 -5 -9 58 -7 73 2 5 4 12 2 16 -4 4 -7 12 -7 25
0 12 6 21 7 25 0 4 -6 15 -6 30 0 16 6 25 6 25 0 0 -6 10 -6 26 0 14 6 23 7
20 2 -5 -9 58 -7 73 2 5 4 12 2 16 -4 4 -7 12 -7 25 0 12 6 21 7 25 0 4 -6 15
-6 30 0 16 6 25 6 25 0 0 -6 10 -6 26 0 14 6 23 7 20 2 -5 -9 58 -7 73 2 5 4
12 2 16 -4 4 -7 12 -7 25 0 12 6 21 7 25 0 4 -6 15 -6 30 0 16 6 25 6 25 0 0
-6 10 -6 26 0 14 6 23 7 20 2 -5 -9 58 -7 73 2 5 4 12 2 16 -4 4 -7 12 -7 25
0 12 6 21 7 25 0 4 -6 15 -6 30 0 16 6 25 6 25 0 0 -6 10 -6 26 0 14 6 23 7
20 2 -5 -9 58 -7 73 2 5 4 12 2 16 -4 4 -7 12 -7 25 0 12 6 21 7 25 0 4 -6 15
-6 30 0 16 6 25 6 25 0 0 -6 10 -6 26 0 14 6 23 7 20 2 -5 -9 58 -7 73 2 5 4
12 2 16 -4 4 -7 12 -7 25 0 12 6 21 7 25 0 4 -6 15 -6 30 0 16 6 25 6 25 0 0
-6 10 -6 26 0 14 6 23 7 20 2 -5 -9 58 -7 73 2 5 4 12 2 16 -4 4 -7 12 -7 25
0 12 6 21 7 25 0 4 -6 15 -6 30 0 16 6 25 6 25 0 0 -6 10 -6 26 0 14 6 23 7
20 2 -5 -9 58 -7 73 2 5 4 12 2 16 -4 4 -7 12 -7 25 0 12 6 21 7 25 0 4 -6 15
-6 30 0 16 6 25 6 25 0 0 -6 10 -6 26 0 14 6 23 7 20 2 -5 -9 58 -7 73 2 5 4
12 2 16 -4 4 -7 12 -7 25 0 12 6 21 7 25 0 4 -6 15 -6 30 0 16 6 25 6 25 0 0
-6 10 -6 26 0 14 6 23 7 21 2 -6 -8 45 -8 59 1 6 3 16 2 23 -2 12 -8 70 -5 79
3 2 3 14 1 27 -4 14 -5 26 -5 33 2 6 6 12 6 16 -1 5 -8 13 -8 27 -1 12 7 19 7
19 1 0 -7 8 -7 23 -2 12 5 31 5 42 1 11 -4 25 -3 32 2 7 5 14 5 18 -2 4 -7 12
-7 26 0 12 7 19 7 19 1 0 -7 8 -7 23 -2 12 5 31 5 42 1 11 -4 25 -3 32 2 7 5
14 5 18 -2 4 -7 12 -7 26 0 12 7 19 7 19 1 0 -7 8 -7 23 -2 12 5 31 5 42 1 11
-4 25 -3 32 2 7 5 14 5 18 -2 4 -7 12 -7 26 0 12 7 19 7 19 1 0 -7 8 -7 23 -2
12 5 31 5 42 1 11 -4 25 -3 32 2 7 5 14 5 18 -2 4 -7 12 -7 26 0 12 7 19 7 19
1 0 -7 8 -7 23 -2 12 5 31 5 42 1 11 -4 25 -3 32 2 7 5 14 5 18 -2 4 -7 12 -7
26 0 12 7 19 7 19 1 0 -7 8 -7 23 -2 12 5 31 5 42 1 11 -4 25 -3 32 2 7 5 14
5 18 -2 4 -7 12 -7 26 0 12 7 19 7 19 1 0 -7 8 -7 23 -2 12 5 31 5 42 1 11 -4
25 -3 32 2 7 5 14 5 18 -2 4 -7 12 -7 26 0 12 7 19 7 19 1 0 -7 8 -7 23 -2 12
5 31 5 42 1 11 -4 25 -3 32 2 7 5 14 5 18 -2 4 -7 12 -7 26 0 12 7 19 7 19 1
0 -7 8 -7 23 -2 12 5 31 5 42 1 11 -4 25 -3 32 2 7 5 14 5 18 -2 4 -7 12 -7
26 0 12 7 19 7 19 1 0 -7 8 -7 23 -2 12 5 31 5 42 1 11 -4 25 -3 32 2 7 5 14
5 18 -2 4 -7 12 -7 26 0 12 7 19 7 19 1 0 -7 8 -7 23 -2 12 5 31 5 42 1 11 -4
25 -3 32 2 7 5 14 5 18 -2 4 -7 12 -7 26 0 12 7 19 7 19 1 0 -7 8 -7 23 -2 12
5 31 5 42 1 11 -4 25 -3 32 2 7 5 14 5 18 -2 4 -7 12 -7 26 0 12 7 19 7 19 1
0 -7 8 -7 23 -2 12 5 31 5 42 1 11 -4 25 -3 32 2 7 5 14 5 18 -2 4 -7 12 -7
26 0 12 7 19 7 19 1 0 -7 8 -7 23 -2 12 5 31 5 42 1 11 -4 25 -3 32 2 7 5 14
5 18 -2 4 -7 12 -7 26 0 12 7 19 7 19 1 0 -7 8 -7 23 -2 12 5 31 5 42 1 11 -4
25 -3 32 2 7 5 14 5 18 -2 4 -7 12 -7 26 1 18 9 20 19 17 95 -2 46 -1 84 2 84
4 0 4 79 0 195 -1 31 -2 239 -1 265 0 8 0 62 0 120 0 58 0 112 0 120 0 8 0 62
0 120 -1 58 0 112 0 120 0 8 0 62 0 120 0 58 0 112 0 120 0 8 0 62 0 120 -1
58 0 112 0 120 0 8 0 62 0 120 0 58 0 112 0 120 0 8 0 62 0 120 -1 58 0 112 0
120 0 8 0 62 0 120 0 58 0 112 0 120 0 8 0 62 0 120 -1 58 -1 110 -1 115 0 6
1 76 2 156 0 80 0 150 -1 155 -1 5 -1 14 0 19 1 6 2 57 1 115 -1 58 -1 112 -1
120 1 171 1 220 0 227 -1 4 -1 13 0 18 1 6 2 46 2 90 -2 180 -1 234 0 242 1 4
1 39 0 76 -1 50 -4 67 -13 64 -7 -2 -21 0 -30 4 -10 6 -19 5 -23 -1 -4 -7 -13
-7 -26 0 -12 7 -19 7 -19 1 0 -7 -9 -7 -25 -1 -16 6 -25 6 -25 -1 0 -6 -6 -6
-18 0 -11 6 -24 6 -34 0 -11 -6 -19 -6 -23 1 -4 7 -12 7 -24 0 -10 -5 -21 -6
-25 -3 -8 9 -66 10 -66 1 0 -4 -11 -3 -25 2 -16 6 -25 6 -25 -1 0 -6 -6 -6
-18 0 -11 6 -24 6 -34 0 -11 -6 -19 -6 -23 1 -4 7 -12 7 -24 0 -10 -5 -21 -6
-25 -3 -8 9 -66 10 -66 1 0 -4 -11 -3 -25 2 -16 6 -25 6 -25 -1 0 -6 -6 -6
-18 0 -11 6 -24 6 -34 0 -11 -6 -19 -6 -23 1 -4 7 -12 7 -24 0 -10 -5 -21 -6
-25 -3 -8 9 -66 10 -66 1 0 -4 -11 -3 -25 2 -16 6 -25 6 -25 -1 0 -6 -6 -6
-18 0 -11 6 -24 6 -34 0 -11 -6 -19 -6 -23 1 -4 7 -12 7 -24 0 -10 -5 -21 -6
-25 -3 -8 9 -66 10 -66 1 0 -4 -11 -3 -25 2 -16 6 -25 6 -25 -1 0 -6 -6 -6
-18 0 -11 6 -24 6 -34 0 -11 -6 -19 -6 -23 1 -4 7 -12 7 -24 0 -10 -5 -21 -6
-25 -3 -8 9 -66 10 -66 1 0 -4 -11 -3 -25 2 -16 6 -25 6 -25 0 0 -6 -9 -6 -25
0 -15 6 -26 6 -30 -1 -4 -5 -11 -7 -16 -3 -14 8 -103 9 -116 1 -7 -4 -14 -3
-18 3 -4 7 -12 7 -25 0 -12 -6 -21 -7 -25 0 -4 6 -15 6 -30 0 -16 -6 -25 -6
-25 0 0 6 -10 6 -26 0 -14 -6 -23 -7 -20 -2 5 9 -58 7 -73 -2 -5 -4 -12 -2
-16 4 -4 7 -12 7 -25 0 -12 -6 -21 -7 -25 0 -4 6 -15 6 -30 0 -16 -6 -25 -6
-25 0 0 6 -10 6 -26 0 -14 -6 -23 -7 -20 -2 5 9 -58 7 -73 -2 -5 -4 -12 -2
-16 4 -4 7 -12 7 -25 0 -12 -6 -21 -7 -25 0 -4 6 -15 6 -30 0 -16 -6 -25 -6
-25 0 0 6 -10 6 -26 0 -14 -6 -23 -7 -20 -2 5 9 -58 7 -73 -2 -5 -4 -12 -2
-16 4 -4 7 -12 7 -25 0 -12 -6 -21 -7 -25 0 -4 6 -15 6 -30 0 -16 -6 -25 -6
-25 0 0 6 -10 6 -26 0 -14 -6 -23 -7 -21 -2 6 8 -50 8 -59 -1 -4 -3 -14 -2
-23 3 -10 5 -23 5 -31 0 -8 -5 -21 -5 -30 0 -9 5 -22 5 -30 0 -8 -5 -21 -5
-31 1 -12 6 -20 5 -24 -1 -4 -6 -11 -8 -16 -4 -15 9 -78 11 -73 2 3 -5 -6 -4
-20 2 -16 6 -26 6 -26 0 0 -6 -9 -6 -25 0 -15 6 -26 6 -30 -1 -4 -5 -11 -7
-16 -3 -14 8 -103 9 -116 1 -7 -4 -14 -3 -18 3 -4 7 -12 7 -25 0 -12 -6 -21
-7 -25 0 -4 6 -15 6 -30 0 -16 -6 -25 -6 -25 0 0 6 -10 6 -26 0 -14 -6 -23 -7
-20 -2 5 9 -58 7 -73 -2 -5 -4 -12 -2 -16 4 -4 7 -12 7 -25 0 -12 -6 -21 -7
-25 0 -4 6 -15 6 -30 0 -16 -6 -25 -6 -25 0 0 6 -10 6 -26 0 -14 -6 -23 -7
-20 -2 5 9 -58 7 -73 -2 -5 -4 -12 -2 -16 4 -4 7 -12 7 -25 0 -12 -6 -21 -7
-25 0 -4 6 -15 6 -30 0 -16 -6 -25 -6 -25 0 0 6 -10 6 -26 0 -14 -6 -23 -7
-21 -2 3 4 -42 7 -99 7 -57 0 -104 -4 -104 -8 0 -4 -8 -3 -18 2 -11 6 -24 6
-34 0 -11 -6 -19 -6 -23 1 -4 7 -12 7 -24 0 -10 -5 -21 -6 -25 -3 -8 9 -66 10
-66 1 0 -4 -11 -3 -25 2 -16 6 -25 6 -25 -1 0 -6 -6 -6 -18 0 -11 6 -24 6 -34
0 -11 -6 -19 -6 -23 1 -4 7 -12 7 -24 0 -10 -5 -21 -6 -25 -3 -8 9 -66 10 -66
1 0 -4 -11 -3 -25 2 -16 6 -25 6 -25 -1 0 -6 -6 -6 -18 0 -11 6 -24 6 -34 0
-11 -6 -19 -6 -23 1 -4 7 -12 7 -24 0 -10 -5 -21 -6 -25 -3 -8 9 -66 10 -66 1
0 -4 -11 -3 -25 2 -16 6 -25 6 -25 -1 0 -6 -6 -6 -18 0 -11 6 -24 6 -34 0 -11
-6 -19 -6 -23 1 -4 7 -12 7 -24 0 -10 -5 -21 -6 -25 -3 -8 9 -66 10 -66 1 0
-4 -11 -3 -25 2 -16 6 -25 6 -25 -1 0 -6 -6 -6 -18 0 -11 6 -24 6 -34 0 -11
-6 -19 -6 -23 1 -4 7 -12 7 -25 0 -10 -6 -21 -7 -23 -3 -6 9 -59 9 -73 0 -6
-3 -16 -2 -24 3 -9 5 -19 5 -26 -1 -8 -6 -14 -7 -18 0 -4 6 -18 6 -35 1 -15
-4 -34 -4 -42 0 -7 5 -20 5 -29 0 -9 -5 -23 -4 -32 1 -11 6 -19 6 -23 -1 -4
-6 -11 -8 -16 -4 -15 9 -78 11 -73 2 3 -5 -6 -4 -20 2 -16 6 -26 6 -26 0 0 -6
-9 -6 -25 0 -15 6 -26 6 -30 -1 -4 -5 -11 -7 -16 -3 -14 8 -103 9 -116 1 -7
-4 -14 -3 -18 3 -4 7 -12 7 -25 0 -12 -6 -21 -7 -25 0 -4 6 -15 6 -30 0 -16
-6 -25 -6 -25 0 0 6 -10 6 -26 0 -14 -6 -23 -7 -20 -2 5 9 -58 7 -73 -2 -5 -4
-12 -2 -16 4 -4 7 -12 7 -25 0 -12 -6 -21 -7 -25 0 -4 6 -15 6 -30 0 -16 -6
-25 -6 -25 0 0 6 -10 6 -26 0 -14 -6 -23 -7 -20 -2 5 9 -58 7 -73 -2 -5 -4
-12 -2 -16 4 -4 7 -12 7 -25 0 -12 -6 -21 -7 -25 0 -4 6 -15 6 -30 0 -16 -6
-25 -6 -25 0 0 6 -10 6 -26 0 -14 -6 -23 -7 -21 -2 3 4 -8 7 -24 7 -16 0 -29
-3 -29 -7 0 -4 -11 -3 -25 2 -16 6 -25 6 -25 0 0 -6 -9 -6 -25 0 -16 6 -25 6
-25 0 0 -6 -10 -6 -26 0 -24 9 -26 8 -21 -10z"/>
</g>
</svg>
